# xmcd
#
# Track frame offsets:
#	150
#	17606
#	33883
#	53089
#
# Disc length: 893 seconds
#
# Revision: 1
# Processed by: cddbd v1.5.2PL0 Copyright (c) Steve Scherf et al.
# Submitted via: audiograbber 1.83.01
#
DISCID=23037b04
DTITLE=Daniel Johns - Aerial Love
DYEAR=2015
DGENRE=R&B
TTITLE0=Preach 
TTITLE1=Aerial Love
TTITLE2=Surrender 
TTITLE3=Late Night Drive  
EXTD=DanielJohns.com\nUniversal Music Australia
EXTT0=
EXTT1=
EXTT2=
EXTT3=
PLAYORDER=
